<mxfile host="app.diagrams.net" modified="2022-12-01T15:22:59.706Z" agent="5.0 (Windows NT 10.0; Win64; x64) AppleWebKit/537.36 (KHTML, like Gecko) Chrome/108.0.0.0 Safari/537.36" etag="wLz11aSb9pIVlA5NdbwF" version="20.6.0" type="github">
  <diagram id="hnKgnSkoYM1Y_T1QRlF2" name="Page-1">
    <mxGraphModel dx="1209" dy="741" grid="1" gridSize="10" guides="1" tooltips="1" connect="1" arrows="1" fold="1" page="1" pageScale="1" pageWidth="1920" pageHeight="1200" math="0" shadow="0">
      <root>
        <mxCell id="0" />
        <mxCell id="1" parent="0" />
        <mxCell id="77fx5GsSkRCZnMhRKN3C-1" value="passport_sdk c api&lt;br&gt;bool init&lt;br&gt;void* create()&lt;br&gt;login(void* pObj, )&lt;br&gt;" style="rounded=0;whiteSpace=wrap;html=1;" parent="1" vertex="1">
          <mxGeometry x="300" y="600" width="120" height="60" as="geometry" />
        </mxCell>
        <mxCell id="77fx5GsSkRCZnMhRKN3C-2" value="class passport&lt;br&gt;login&lt;br&gt;logout&lt;br&gt;..." style="rounded=0;whiteSpace=wrap;html=1;" parent="1" vertex="1">
          <mxGeometry x="230" y="480" width="120" height="60" as="geometry" />
        </mxCell>
        <mxCell id="77fx5GsSkRCZnMhRKN3C-3" value="uv_curl" style="rounded=0;whiteSpace=wrap;html=1;" parent="1" vertex="1">
          <mxGeometry x="440" y="480" width="120" height="60" as="geometry" />
        </mxCell>
        <mxCell id="77fx5GsSkRCZnMhRKN3C-4" value="uv_curl c api" style="rounded=0;whiteSpace=wrap;html=1;" parent="1" vertex="1">
          <mxGeometry x="440" y="210" width="120" height="60" as="geometry" />
        </mxCell>
        <mxCell id="77fx5GsSkRCZnMhRKN3C-7" value="get&lt;br&gt;post&lt;br&gt;" style="rounded=0;whiteSpace=wrap;html=1;" parent="1" vertex="1">
          <mxGeometry x="350" y="120" width="120" height="60" as="geometry" />
        </mxCell>
        <mxCell id="77fx5GsSkRCZnMhRKN3C-8" value="event loop" style="rounded=0;whiteSpace=wrap;html=1;" parent="1" vertex="1">
          <mxGeometry x="530" y="120" width="120" height="60" as="geometry" />
        </mxCell>
        <mxCell id="77fx5GsSkRCZnMhRKN3C-9" value="node addon&lt;br&gt;return ::newObj(&#39;bilipassport&#39;)&lt;br&gt;class bilipassport&lt;br&gt;login" style="rounded=0;whiteSpace=wrap;html=1;" parent="1" vertex="1">
          <mxGeometry x="120" y="814" width="280" height="60" as="geometry" />
        </mxCell>
        <mxCell id="77fx5GsSkRCZnMhRKN3C-11" value="JS&lt;br&gt;const ppt = new bilipassport()&lt;br&gt;ppt.login(, () =&amp;gt; {} )" style="rounded=0;whiteSpace=wrap;html=1;" parent="1" vertex="1">
          <mxGeometry x="140" y="950" width="240" height="60" as="geometry" />
        </mxCell>
        <mxCell id="77fx5GsSkRCZnMhRKN3C-12" value="c++&lt;br&gt;auto ppt = bilipassport()&lt;br&gt;ppt.login(, []() =&amp;gt; {} )&lt;br&gt;delete ppt" style="rounded=0;whiteSpace=wrap;html=1;" parent="1" vertex="1">
          <mxGeometry x="560" y="950" width="320" height="60" as="geometry" />
        </mxCell>
        <mxCell id="77fx5GsSkRCZnMhRKN3C-13" value="c++ wrapper&lt;br&gt;class bilipassport" style="rounded=0;whiteSpace=wrap;html=1;" parent="1" vertex="1">
          <mxGeometry x="555" y="814" width="320" height="60" as="geometry" />
        </mxCell>
      </root>
    </mxGraphModel>
  </diagram>
</mxfile>
